<svg width="2480" height="3500" viewBox="0 0 2480 3500" fill="none" xmlns="http://www.w3.org/2000/svg">
<g clip-path="url(#clip0_222_445)">
<rect width="2480" height="3500" fill="#121212"/>
<rect x="3898.24" y="3416.82" width="1813.76" height="119.028" transform="rotate(-180 3898.24 3416.82)" fill="#494949"/>
<rect x="4028.61" y="3297.79" width="1813.76" height="119.028" transform="rotate(-180 4028.61 3297.79)" fill="#494949"/>
<rect x="4147.63" y="3178.76" width="1813.76" height="119.028" transform="rotate(-180 4147.63 3178.76)" fill="#494949"/>
<rect x="3461.81" y="3059.73" width="1813.76" height="119.028" transform="rotate(-180 3461.81 3059.73)" fill="#494949"/>
<rect x="3558.17" y="2940.7" width="1813.76" height="119.028" transform="rotate(-180 3558.17 2940.7)" fill="#494949"/>
<rect x="3790.55" y="2821.68" width="1813.76" height="119.028" transform="rotate(-180 3790.55 2821.68)" fill="#494949"/>
<rect x="3733.87" y="2702.65" width="1813.76" height="119.028" transform="rotate(-180 3733.87 2702.65)" fill="#494949"/>
<rect x="3648.85" y="2583.62" width="1813.76" height="119.028" transform="rotate(-180 3648.85 2583.62)" fill="#494949"/>
<rect x="3558.17" y="2464.59" width="1813.76" height="119.028" transform="rotate(-180 3558.17 2464.59)" fill="#494949"/>
<rect x="3694.2" y="2345.57" width="1813.76" height="119.028" transform="rotate(-180 3694.2 2345.57)" fill="#494949"/>
<rect x="3558.17" y="2226.54" width="1813.76" height="119.028" transform="rotate(-180 3558.17 2226.54)" fill="#494949"/>
<rect x="3274.76" y="2107.51" width="1813.76" height="119.028" transform="rotate(-180 3274.76 2107.51)" fill="#494949"/>
<rect x="3558.17" y="1988.48" width="1813.76" height="119.028" transform="rotate(-180 3558.17 1988.48)" fill="#494949"/>
<rect x="3790.55" y="1869.45" width="1813.76" height="119.028" transform="rotate(-180 3790.55 1869.45)" fill="#494949"/>
<rect x="3274.76" y="1750.42" width="1813.76" height="119.028" transform="rotate(-180 3274.76 1750.42)" fill="#494949"/>
<rect x="3898.24" y="1631.4" width="1813.76" height="119.028" transform="rotate(-180 3898.24 1631.4)" fill="#494949"/>
<rect x="3558.17" y="1512.37" width="1813.76" height="119.028" transform="rotate(-180 3558.17 1512.37)" fill="#494949"/>
<rect x="4028.61" y="1393.34" width="1813.76" height="119.028" transform="rotate(-180 4028.61 1393.34)" fill="#494949"/>
<rect x="3648.85" y="1274.31" width="1813.76" height="119.028" transform="rotate(-180 3648.85 1274.31)" fill="#494949"/>
<rect x="3354.12" y="1155.28" width="1813.76" height="119.028" transform="rotate(-180 3354.12 1155.28)" fill="#494949"/>
<rect x="3790.55" y="1036.25" width="1813.76" height="119.028" transform="rotate(-180 3790.55 1036.25)" fill="#494949"/>
<rect x="3898.24" y="917.224" width="1813.76" height="119.028" transform="rotate(-180 3898.24 917.224)" fill="#494949"/>
<rect x="3558.17" y="798.197" width="1813.76" height="119.028" transform="rotate(-180 3558.17 798.197)" fill="#494949"/>
<rect x="4181.65" y="679.17" width="1813.76" height="119.028" transform="rotate(-180 4181.65 679.17)" fill="#494949"/>
<rect x="3694.2" y="560.14" width="1813.76" height="119.028" transform="rotate(-180 3694.2 560.14)" fill="#494949"/>
<rect x="3954.93" y="441.113" width="1813.76" height="119.028" transform="rotate(-180 3954.93 441.113)" fill="#494949"/>
<rect x="4147.63" y="203.056" width="1813.76" height="119.028" transform="rotate(-180 4147.63 203.056)" fill="#494949"/>
<rect width="1813.76" height="119.028" transform="matrix(1 0 0 -1 -1419.2 3416.82)" fill="#494949"/>
<rect width="1813.76" height="119.028" transform="matrix(1 0 0 -1 -1549.57 3297.79)" fill="#494949"/>
<rect width="1813.76" height="119.028" transform="matrix(1 0 0 -1 -1668.59 3178.76)" fill="#494949"/>
<rect width="1813.76" height="119.028" transform="matrix(1 0 0 -1 -982.762 3059.73)" fill="#494949"/>
<rect width="1813.76" height="119.028" transform="matrix(1 0 0 -1 -1079.12 2940.7)" fill="#494949"/>
<rect width="1813.76" height="119.028" transform="matrix(1 0 0 -1 -1311.5 2821.68)" fill="#494949"/>
<rect width="1813.76" height="119.028" transform="matrix(1 0 0 -1 -1254.83 2702.65)" fill="#494949"/>
<rect width="1813.76" height="119.028" transform="matrix(1 0 0 -1 -1169.8 2583.62)" fill="#494949"/>
<rect width="1813.76" height="119.028" transform="matrix(1 0 0 -1 -1079.12 2464.59)" fill="#494949"/>
<rect width="1813.76" height="119.028" transform="matrix(1 0 0 -1 -1215.15 2345.57)" fill="#494949"/>
<rect width="1813.76" height="119.028" transform="matrix(1 0 0 -1 -1079.12 2226.54)" fill="#494949"/>
<rect width="1813.76" height="119.028" transform="matrix(1 0 0 -1 -795.717 2107.51)" fill="#494949"/>
<rect width="1813.76" height="119.028" transform="matrix(1 0 0 -1 -1079.12 1988.48)" fill="#494949"/>
<rect width="1813.76" height="119.028" transform="matrix(1 0 0 -1 -1311.5 1869.45)" fill="#494949"/>
<rect width="1813.76" height="119.028" transform="matrix(1 0 0 -1 -795.717 1750.42)" fill="#494949"/>
<rect width="1813.76" height="119.028" transform="matrix(1 0 0 -1 -1419.2 1631.4)" fill="#494949"/>
<rect width="1813.76" height="119.028" transform="matrix(1 0 0 -1 -1079.12 1512.37)" fill="#494949"/>
<rect width="1813.76" height="119.028" transform="matrix(1 0 0 -1 -1549.57 1393.34)" fill="#494949"/>
<rect width="1813.76" height="119.028" transform="matrix(1 0 0 -1 -1169.8 1274.31)" fill="#494949"/>
<rect width="1813.76" height="119.028" transform="matrix(1 0 0 -1 -875.074 1155.28)" fill="#494949"/>
<rect width="1813.76" height="119.028" transform="matrix(1 0 0 -1 -1311.5 1036.25)" fill="#494949"/>
<rect width="1813.76" height="119.028" transform="matrix(1 0 0 -1 -1419.2 917.224)" fill="#494949"/>
<rect width="1813.76" height="119.028" transform="matrix(1 0 0 -1 -1079.12 798.197)" fill="#494949"/>
<rect width="1813.76" height="119.028" transform="matrix(1 0 0 -1 -1702.6 679.17)" fill="#494949"/>
<rect width="1813.76" height="119.028" transform="matrix(1 0 0 -1 -1215.15 560.14)" fill="#494949"/>
<rect width="1813.76" height="119.028" transform="matrix(1 0 0 -1 -1475.88 441.113)" fill="#494949"/>
<rect width="1813.76" height="119.028" transform="matrix(1 0 0 -1 -1668.59 203.056)" fill="#494949"/>
<rect x="-114.578" y="1.5" width="612.41" height="612.41" stroke="#646464" stroke-width="3"/>
<rect x="-114.578" y="614.98" width="612.41" height="612.41" stroke="#646464" stroke-width="3"/>
<rect x="-114.578" y="1226.5" width="612.41" height="612.41" stroke="#646464" stroke-width="3"/>
<rect x="-114.578" y="1839.98" width="612.41" height="612.41" stroke="#646464" stroke-width="3"/>
<rect x="-114.578" y="2448.5" width="612.41" height="612.41" stroke="#646464" stroke-width="3"/>
<rect x="-114.578" y="3061.98" width="612.41" height="612.41" stroke="#646464" stroke-width="3"/>
<rect x="1978.5" y="1.5" width="612.41" height="612.41" stroke="#646464" stroke-width="3"/>
<rect x="1978.5" y="614.98" width="612.41" height="612.41" stroke="#646464" stroke-width="3"/>
<rect x="1978.5" y="1226.5" width="612.41" height="612.41" stroke="#646464" stroke-width="3"/>
<rect x="1978.5" y="1839.98" width="612.41" height="612.41" stroke="#646464" stroke-width="3"/>
<rect x="1978.5" y="2448.5" width="612.41" height="612.41" stroke="#646464" stroke-width="3"/>
<rect x="1978.5" y="3061.98" width="612.41" height="612.41" stroke="#646464" stroke-width="3"/>
<rect x="867" y="2574" width="184.272" height="184.272" fill="#1D1D1D"/>
<line x1="956.304" y1="2574" x2="956.304" y2="2758.27" stroke="#494949" stroke-width="6.66667"/>
<line x1="867" y1="2668.56" x2="1051.27" y2="2668.56" stroke="#494949" stroke-width="6.66667"/>
<rect x="1148.27" y="2574" width="184.272" height="184.272" fill="#1D1D1D"/>
<line x1="1237.58" y1="2574" x2="1237.58" y2="2758.27" stroke="#494949" stroke-width="6.66667"/>
<line x1="1148.27" y1="2668.56" x2="1332.54" y2="2668.56" stroke="#494949" stroke-width="6.66667"/>
<rect x="1429.54" y="2574" width="184.272" height="184.272" fill="#96855A"/>
<line x1="1518.85" y1="2574" x2="1518.85" y2="2758.27" stroke="#1D1D1D" stroke-width="6.66667"/>
<line x1="1429.54" y1="2668.56" x2="1613.82" y2="2668.56" stroke="#1D1D1D" stroke-width="6.66667"/>
<rect x="1007" y="2891" width="184.272" height="184.272" fill="#96855A"/>
<line x1="1096.3" y1="2891" x2="1096.3" y2="3075.27" stroke="#1D1D1D" stroke-width="6.66667"/>
<line x1="1007" y1="2985.56" x2="1191.27" y2="2985.56" stroke="#1D1D1D" stroke-width="6.66667"/>
<rect x="1288.27" y="2891" width="184.272" height="184.272" fill="#1D1D1D"/>
<line x1="1377.58" y1="2891" x2="1377.58" y2="3075.27" stroke="#494949" stroke-width="6.66667"/>
<line x1="1288.27" y1="2985.56" x2="1472.55" y2="2985.56" stroke="#494949" stroke-width="6.66667"/>
<rect x="867" y="1304" width="184.272" height="184.272" fill="#96855A"/>
<line x1="956.304" y1="1304" x2="956.304" y2="1488.27" stroke="#1D1D1D" stroke-width="6.66667"/>
<line x1="867" y1="1398.56" x2="1051.27" y2="1398.56" stroke="#1D1D1D" stroke-width="6.66667"/>
<rect x="1148.27" y="1304" width="184.272" height="184.272" fill="#96855A"/>
<line x1="1237.58" y1="1304" x2="1237.58" y2="1488.27" stroke="#1D1D1D" stroke-width="6.66667"/>
<line x1="1148.27" y1="1398.56" x2="1332.54" y2="1398.56" stroke="#1D1D1D" stroke-width="6.66667"/>
<rect x="1148.27" y="987" width="184.272" height="184.272" fill="#1D1D1D"/>
<line x1="1237.58" y1="987" x2="1237.58" y2="1171.27" stroke="#494949" stroke-width="6.66667"/>
<line x1="1148.27" y1="1081.56" x2="1332.54" y2="1081.56" stroke="#494949" stroke-width="6.66667"/>
<rect x="1148.27" y="1621" width="184.272" height="184.272" fill="#1D1D1D"/>
<line x1="1237.58" y1="1621" x2="1237.58" y2="1805.27" stroke="#494949" stroke-width="6.66667"/>
<line x1="1148.27" y1="1715.56" x2="1332.54" y2="1715.56" stroke="#494949" stroke-width="6.66667"/>
<rect x="1148.27" y="1938" width="184.272" height="184.272" fill="#96855A"/>
<line x1="1237.58" y1="1938" x2="1237.58" y2="2122.27" stroke="#1D1D1D" stroke-width="6.66667"/>
<line x1="1148.27" y1="2032.56" x2="1332.54" y2="2032.56" stroke="#1D1D1D" stroke-width="6.66667"/>
<rect x="1148" y="2257" width="184.272" height="184.272" fill="#1D1D1D"/>
<line x1="1237.3" y1="2257" x2="1237.3" y2="2441.27" stroke="#494949" stroke-width="6.66667"/>
<line x1="1148" y1="2351.56" x2="1332.27" y2="2351.56" stroke="#494949" stroke-width="6.66667"/>
<rect x="1429.54" y="1304" width="184.272" height="184.272" fill="#1D1D1D"/>
<line x1="1518.85" y1="1304" x2="1518.85" y2="1488.27" stroke="#494949" stroke-width="6.66667"/>
<line x1="1429.54" y1="1398.56" x2="1613.82" y2="1398.56" stroke="#494949" stroke-width="6.66667"/>
<rect x="867" y="704" width="184.272" height="184.272" fill="#1D1D1D"/>
<line x1="956.304" y1="704" x2="956.304" y2="888.272" stroke="#494949" stroke-width="6.66667"/>
<line x1="867" y1="798.559" x2="1051.27" y2="798.559" stroke="#494949" stroke-width="6.66667"/>
<rect x="1148.27" y="704" width="184.272" height="184.272" fill="#96855A"/>
<line x1="1237.58" y1="704" x2="1237.58" y2="888.272" stroke="#1D1D1D" stroke-width="6.66667"/>
<line x1="1148.27" y1="798.559" x2="1332.54" y2="798.559" stroke="#1D1D1D" stroke-width="6.66667"/>
<rect x="1429.54" y="704" width="184.272" height="184.272" fill="#96855A"/>
<line x1="1518.85" y1="704" x2="1518.85" y2="888.272" stroke="#1D1D1D" stroke-width="6.66667"/>
<line x1="1429.54" y1="798.559" x2="1613.82" y2="798.559" stroke="#1D1D1D" stroke-width="6.66667"/>
<rect x="867" y="395" width="184.272" height="184.272" fill="#96855A"/>
<line x1="956.304" y1="395" x2="956.304" y2="579.272" stroke="#1D1D1D" stroke-width="6.66667"/>
<line x1="867" y1="489.559" x2="1051.27" y2="489.559" stroke="#1D1D1D" stroke-width="6.66667"/>
<rect x="1148.27" y="395" width="184.272" height="184.272" fill="#1D1D1D"/>
<line x1="1237.58" y1="395" x2="1237.58" y2="579.272" stroke="#494949" stroke-width="6.66667"/>
<line x1="1148.27" y1="489.559" x2="1332.54" y2="489.559" stroke="#494949" stroke-width="6.66667"/>
<rect x="1429.54" y="395" width="184.272" height="184.272" fill="#1D1D1D"/>
<line x1="1518.85" y1="395" x2="1518.85" y2="579.272" stroke="#494949" stroke-width="6.66667"/>
<line x1="1429.54" y1="489.559" x2="1613.82" y2="489.559" stroke="#494949" stroke-width="6.66667"/>
<rect x="499" y="3208" width="184.272" height="184.272" fill="#96855A"/>
<line x1="588.304" y1="3208" x2="588.304" y2="3392.27" stroke="#1D1D1D" stroke-width="6.66667"/>
<line x1="499" y1="3302.56" x2="683.272" y2="3302.56" stroke="#1D1D1D" stroke-width="6.66667"/>
<rect x="823.271" y="3208" width="184.272" height="184.272" fill="#1D1D1D"/>
<line x1="912.576" y1="3208" x2="912.576" y2="3392.27" stroke="#494949" stroke-width="6.66667"/>
<line x1="823.271" y1="3302.56" x2="1007.54" y2="3302.56" stroke="#494949" stroke-width="6.66667"/>
<rect x="1147.54" y="3208" width="184.272" height="184.272" fill="#1D1D1D"/>
<line x1="1236.85" y1="3208" x2="1236.85" y2="3392.27" stroke="#494949" stroke-width="6.66667"/>
<line x1="1147.54" y1="3302.56" x2="1331.82" y2="3302.56" stroke="#494949" stroke-width="6.66667"/>
<rect x="1471.82" y="3208" width="184.272" height="184.272" fill="#96855A"/>
<line x1="1561.12" y1="3208" x2="1561.12" y2="3392.27" stroke="#1D1D1D" stroke-width="6.66667"/>
<line x1="1471.82" y1="3302.56" x2="1656.09" y2="3302.56" stroke="#1D1D1D" stroke-width="6.66667"/>
<rect x="1796.09" y="3208" width="184.272" height="184.272" fill="#96855A"/>
<line x1="1885.39" y1="3208" x2="1885.39" y2="3392.27" stroke="#1D1D1D" stroke-width="6.66667"/>
<line x1="1796.09" y1="3302.56" x2="1980.36" y2="3302.56" stroke="#1D1D1D" stroke-width="6.66667"/>
<rect x="499" y="103" width="184.272" height="184.272" fill="#96855A"/>
<line x1="588.304" y1="103" x2="588.304" y2="287.272" stroke="#1D1D1D" stroke-width="6.66667"/>
<line x1="499" y1="197.559" x2="683.272" y2="197.559" stroke="#1D1D1D" stroke-width="6.66667"/>
<rect x="823.271" y="103" width="184.272" height="184.272" fill="#1D1D1D"/>
<line x1="912.576" y1="103" x2="912.576" y2="287.272" stroke="#494949" stroke-width="6.66667"/>
<line x1="823.271" y1="197.559" x2="1007.54" y2="197.559" stroke="#494949" stroke-width="6.66667"/>
<rect x="1147.54" y="103" width="184.272" height="184.272" fill="#96855A"/>
<line x1="1236.85" y1="103" x2="1236.85" y2="287.272" stroke="#1D1D1D" stroke-width="6.66667"/>
<line x1="1147.54" y1="197.559" x2="1331.82" y2="197.559" stroke="#1D1D1D" stroke-width="6.66667"/>
<rect x="1471.82" y="103" width="184.272" height="184.272" fill="#1D1D1D"/>
<line x1="1561.12" y1="103" x2="1561.12" y2="287.272" stroke="#494949" stroke-width="6.66667"/>
<line x1="1471.82" y1="197.559" x2="1656.09" y2="197.559" stroke="#494949" stroke-width="6.66667"/>
<rect x="1796.09" y="103" width="184.272" height="184.272" fill="#96855A"/>
<line x1="1885.39" y1="103" x2="1885.39" y2="287.272" stroke="#1D1D1D" stroke-width="6.66667"/>
<line x1="1796.09" y1="197.559" x2="1980.36" y2="197.559" stroke="#1D1D1D" stroke-width="6.66667"/>
</g>
<defs>
<clipPath id="clip0_222_445">
<rect width="2480" height="3500" fill="white"/>
</clipPath>
</defs>
</svg>
