<svg width="2481" height="3503" viewBox="0 0 2481 3503" fill="none" xmlns="http://www.w3.org/2000/svg">
<g clip-path="url(#clip0_514_1941)">
<rect width="2480" height="3502.2" transform="translate(0.446777)" fill="#0D0D0D"/>
<path d="M1125.46 125.459H-4152.04" stroke="#7F7F7F" stroke-width="13.4174"/>
<path d="M1125.46 250.261H-4152.04" stroke="#7F7F7F" stroke-width="13.4174"/>
<path d="M1125.46 375.064H-4152.04" stroke="#7F7F7F" stroke-width="13.4174"/>
<path d="M1125.46 499.866H-4152.04" stroke="#7F7F7F" stroke-width="13.4174"/>
<path d="M1125.46 624.668H-4152.04" stroke="#7F7F7F" stroke-width="13.4174"/>
<path d="M1125.46 749.471H-4152.04" stroke="#7F7F7F" stroke-width="13.4174"/>
<path d="M1125.46 874.273H-4152.04" stroke="#7F7F7F" stroke-width="13.4174"/>
<path d="M1125.46 999.076H-4152.04" stroke="#7F7F7F" stroke-width="13.4174"/>
<path d="M1125.46 1123.88H-4152.04" stroke="#7F7F7F" stroke-width="13.4174"/>
<path d="M1125.46 1248.68H-4152.04" stroke="#7F7F7F" stroke-width="13.4174"/>
<path d="M1125.46 1373.48H-4152.04" stroke="#7F7F7F" stroke-width="13.4174"/>
<path d="M1125.46 1498.29H-4152.04" stroke="#7F7F7F" stroke-width="13.4174"/>
<path d="M1125.46 1623.09H-4152.04" stroke="#7F7F7F" stroke-width="13.4174"/>
<path d="M1125.46 1747.89H-4152.04" stroke="#7F7F7F" stroke-width="13.4174"/>
<path d="M1125.46 1872.69H-4152.04" stroke="#7F7F7F" stroke-width="13.4174"/>
<path d="M1125.46 1997.49H-4152.04" stroke="#7F7F7F" stroke-width="13.4174"/>
<path d="M1125.46 2122.3H-4152.04" stroke="#7F7F7F" stroke-width="13.4174"/>
<path d="M1125.46 2247.1H-4152.04" stroke="#7F7F7F" stroke-width="13.4174"/>
<path d="M1125.46 2371.9H-4152.04" stroke="#7F7F7F" stroke-width="13.4174"/>
<path d="M1125.46 2496.71H-4152.04" stroke="#7F7F7F" stroke-width="13.4174"/>
<path d="M1125.46 2621.51H-4152.04" stroke="#7F7F7F" stroke-width="13.4174"/>
<path d="M1125.46 2746.31H-4152.04" stroke="#7F7F7F" stroke-width="13.4174"/>
<path d="M1125.46 2871.11H-4152.04" stroke="#7F7F7F" stroke-width="13.4174"/>
<path d="M1125.46 2995.92H-4442.75" stroke="#7F7F7F" stroke-width="13.4174"/>
<path d="M1125.46 3120.72H-4152.04" stroke="#7F7F7F" stroke-width="13.4174"/>
<path d="M1125.46 -483.209V3500" stroke="#7F7F7F" stroke-width="13.4174"/>
<path d="M700.574 -483.209V3500" stroke="#7F7F7F" stroke-width="13.4174"/>
<path d="M597.708 -483.209V3500" stroke="#7F7F7F" stroke-width="13.4174"/>
<path d="M494.842 -483.209V3500" stroke="#7F7F7F" stroke-width="13.4174"/>
<path d="M391.975 -483.209V3500" stroke="#7F7F7F" stroke-width="13.4174"/>
<path d="M289.109 -483.209V3500" stroke="#7F7F7F" stroke-width="13.4174"/>
<path d="M186.242 -483.209V3500" stroke="#7F7F7F" stroke-width="13.4174"/>
<path d="M83.3755 -483.209V3500" stroke="#7F7F7F" stroke-width="13.4174"/>
<path d="M1961.25 3449.88C1877.14 3449.88 1836.77 3447.65 1768.36 3442.05C1602.39 3427.51 1502.58 3369.35 1475.67 3136.69L1444.27 2868.23H1541.83L1573.23 3134.45C1591.18 3286.57 1638.28 3330.2 1780.7 3342.5C1714.54 3293.29 1686.5 3213.87 1686.5 3133.33C1686.5 2962.19 1808.74 2831.32 1982.56 2831.32C2154.14 2831.32 2279.74 2964.43 2279.74 3142.28C2279.74 3321.25 2159.75 3449.88 1961.25 3449.88ZM1983.68 3342.5C2101.43 3342.5 2183.3 3257.49 2183.3 3141.16C2183.3 3022.6 2100.31 2938.7 1983.68 2938.7C1868.17 2938.7 1782.94 3022.6 1782.94 3141.16C1782.94 3260.85 1867.05 3342.5 1983.68 3342.5Z" fill="#F7F7F7"/>
<path d="M2164.54 2644.1L1669.68 1543.3V1437.04H2269.65V1543.3H1779.04L2269.65 2644.1V2750.37H1669.68V2644.1H2164.54Z" fill="#F7F7F7"/>
<path d="M1669.68 1280.08V903.125H2269.65V1010.51H1767.24L1767.24 1181.64L2028.54 1190.59C2195.63 1196.19 2275.25 1224.15 2275.25 1370.68V1376.27H2177.69V1369.56C2177.69 1309.16 2144.05 1295.74 2022.93 1290.14L1669.68 1280.08Z" fill="#F7F7F7"/>
<path d="M1669.68 752.583V126.518H2172.08V49.3376H2426.65V146.652H2269.65V753.701H2426.65V849.897H2172.08V839.83C2172.08 781.665 2141.8 767.124 2012.84 763.769L1669.68 752.583ZM1767.24 232.78V655.269L2009.47 661.98C2077.88 665.336 2131.71 670.928 2172.08 687.707V232.78H1767.24Z" fill="#F7F7F7"/>
<path d="M2164.52 448.428L2157.44 448.428L2157.44 455.513L2164.52 455.513L2164.52 448.428ZM2143.27 448.428L2129.1 448.428L2129.1 455.513L2143.27 455.513L2143.27 448.428ZM2114.93 448.428L2100.76 448.428L2100.76 455.513L2114.93 455.513L2114.93 448.428ZM2086.59 448.428L2072.43 448.428L2072.43 455.513L2086.59 455.513L2086.59 448.428ZM2058.26 448.428L2044.09 448.428L2044.09 455.513L2058.26 455.513L2058.26 448.428ZM2029.92 448.428L2015.75 448.428L2015.75 455.513L2029.92 455.513L2029.92 448.428ZM2001.58 448.428L1987.41 448.428L1987.41 455.513L2001.58 455.513L2001.58 448.428ZM1973.24 448.428L1959.07 448.428L1959.07 455.513L1973.24 455.513L1973.24 448.428ZM1944.91 448.428L1930.74 448.428L1930.74 455.513L1944.91 455.513L1944.91 448.428ZM1916.57 448.428L1902.4 448.428L1902.4 455.513L1916.57 455.513L1916.57 448.428ZM1888.23 448.428L1874.06 448.428L1874.06 455.513L1888.23 455.513L1888.23 448.428ZM1859.89 448.428L1845.72 448.428L1845.72 455.513L1859.89 455.513L1859.89 448.428ZM1831.55 448.428L1817.38 448.428L1817.38 455.513L1831.55 455.513L1831.55 448.428ZM1803.22 448.428L1789.05 448.428L1789.05 455.513L1803.22 455.513L1803.22 448.428ZM1774.88 448.428L1767.79 448.428L1767.79 455.513L1774.88 455.513L1774.88 448.428ZM2164.52 448.428L2157.44 448.428L2157.44 455.513L2164.52 455.513L2164.52 448.428ZM2143.27 448.428L2129.1 448.428L2129.1 455.513L2143.27 455.513L2143.27 448.428ZM2114.93 448.428L2100.76 448.428L2100.76 455.513L2114.93 455.513L2114.93 448.428ZM2086.59 448.428L2072.43 448.428L2072.43 455.513L2086.59 455.513L2086.59 448.428ZM2058.26 448.428L2044.09 448.428L2044.09 455.513L2058.26 455.513L2058.26 448.428ZM2029.92 448.428L2015.75 448.428L2015.75 455.513L2029.92 455.513L2029.92 448.428ZM2001.58 448.428L1987.41 448.428L1987.41 455.513L2001.58 455.513L2001.58 448.428ZM1973.24 448.428L1959.07 448.428L1959.07 455.513L1973.24 455.513L1973.24 448.428ZM1944.91 448.428L1930.74 448.428L1930.74 455.513L1944.91 455.513L1944.91 448.428ZM1916.57 448.428L1902.4 448.428L1902.4 455.513L1916.57 455.513L1916.57 448.428ZM1888.23 448.428L1874.06 448.428L1874.06 455.513L1888.23 455.513L1888.23 448.428ZM1859.89 448.428L1845.72 448.428L1845.72 455.513L1859.89 455.513L1859.89 448.428ZM1831.55 448.428L1817.38 448.428L1817.38 455.513L1831.55 455.513L1831.55 448.428ZM1803.22 448.428L1789.05 448.428L1789.05 455.513L1803.22 455.513L1803.22 448.428ZM1774.88 448.428L1767.79 448.428L1767.79 455.513L1774.88 455.513L1774.88 448.428Z" fill="#F7F7F7"/>
<path d="M2093.68 585.395V515.731V318.547H2199.95V585.395H2093.68Z" fill="#F7F7F7" stroke="#F7F7F7" stroke-width="2.36149"/>
<path d="M2166.78 510.931H2174.66V548.18C2172.24 548.18 2169.98 547.791 2167.95 547.167C2165.93 546.544 2164.21 545.842 2162.81 545.063C2161.41 544.284 2159.93 543.037 2158.45 541.478C2156.97 539.92 2155.72 538.439 2154.78 537.192C2153.85 535.946 2152.6 534.153 2151.04 531.893C2150.97 531.737 2150.5 531.036 2149.56 529.633C2148.63 528.231 2148.08 527.374 2147.85 527.062C2147.61 526.75 2147.07 526.049 2146.21 524.958C2145.35 523.867 2144.65 523.165 2144.11 522.854C2143.64 522.542 2142.94 522.074 2142 521.451C2141.15 520.828 2140.29 520.438 2139.35 520.204C2138.42 520.048 2137.48 519.892 2136.39 519.892C2133.59 519.892 2131.33 520.75 2129.69 522.308C2128.05 523.867 2127.2 526.049 2127.2 528.698C2127.2 530.257 2127.51 531.66 2127.98 532.751C2128.44 533.919 2129.07 534.855 2129.85 535.478C2130.63 536.101 2131.64 536.647 2132.89 537.037C2134.13 537.504 2135.22 537.738 2136.31 537.894C2137.41 538.05 2138.73 538.128 2140.13 538.128V546.778H2138.73C2132.89 546.778 2128.21 545.141 2124.78 541.868C2121.35 538.595 2119.56 534.075 2119.56 528.465C2119.56 523.165 2121.12 518.957 2124.08 515.684C2127.04 512.489 2131.02 510.853 2135.93 510.853C2137.95 510.853 2139.82 511.164 2141.54 511.788C2143.33 512.411 2144.73 513.113 2145.82 513.814C2146.91 514.515 2148.24 515.684 2149.64 517.399C2151.12 519.113 2152.13 520.438 2152.68 521.217C2153.3 522.074 2154.32 523.633 2155.8 525.815C2160.01 532.361 2163.67 536.257 2166.78 537.504V510.931ZM2174.66 510.256L2145.9 490.462L2119.17 508.853V497.242L2138.81 484.617L2119.17 471.447V460.537L2145.9 478.928L2174.66 459.213V471.058L2153.46 484.929L2174.66 499.034V510.256ZM2154.24 421.695H2161.72V428.631H2174.66V437.203L2161.72 437.281V460.425H2152.91L2119.64 437.047V428.631H2154.24V421.695ZM2154.24 437.125H2130.63L2154.24 453.1V437.125ZM2119.17 358.678H2174.66V367.951H2131.87L2174.66 383.381V391.329L2131.87 407.149H2174.66V416.344H2119.17V402.707L2162.58 387.199L2119.17 372.237V358.678Z" fill="black"/>
<path d="M1882.33 2195.93V2126.27V1929.08H1988.59V2195.93H1882.33Z" fill="#F7F7F7" stroke="#F7F7F7" stroke-width="2.36149"/>
<path d="M1942.88 2117.47H1950.37V2124.4H1963.3V2132.98L1950.37 2133.05V2156.2H1941.56L1908.28 2132.82V2124.4H1942.88V2117.47ZM1942.88 2132.9H1919.27L1942.88 2148.87V2132.9ZM1963.3 2118.43L1934.55 2098.64L1907.82 2117.03V2105.42L1927.45 2092.79L1907.82 2079.62V2068.71L1934.55 2087.1L1963.3 2067.39V2079.23L1942.11 2093.1L1963.3 2107.21V2118.43ZM1926.29 2067.12C1920.68 2066.96 1916.31 2065.33 1913.04 2062.13C1909.84 2059.02 1908.21 2054.73 1908.21 2049.35C1908.21 2044.36 1909.61 2040.23 1912.26 2037.12C1914.99 2034 1918.49 2032.44 1922.86 2032.44C1925.51 2032.44 1927.84 2033.14 1929.87 2034.55C1931.9 2035.95 1933.22 2037.74 1934 2040.08C1934.78 2037.04 1936.34 2034.62 1938.6 2032.83C1940.86 2031.12 1943.59 2030.18 1946.86 2030.18C1952.08 2030.18 1956.29 2031.97 1959.56 2035.56C1962.83 2039.14 1964.47 2043.82 1964.47 2049.51C1964.47 2055.2 1962.83 2059.79 1959.56 2063.22C1956.29 2066.73 1952 2068.44 1946.55 2068.44H1945.38V2059.87C1953.02 2059.64 1956.83 2056.13 1956.83 2049.27C1956.83 2046.31 1955.98 2043.9 1954.26 2042.1C1952.55 2040.39 1950.13 2039.46 1947.09 2039.46C1943.98 2039.46 1941.64 2040.47 1940.16 2042.49C1938.75 2044.52 1937.98 2047.17 1937.98 2050.37C1937.98 2051.38 1938.05 2052.31 1938.05 2053.17H1931.35V2052.39C1931.35 2050.83 1931.27 2049.43 1931.12 2048.26C1930.96 2047.17 1930.57 2046 1930.1 2044.83C1929.64 2043.66 1928.78 2042.73 1927.69 2042.1C1926.6 2041.48 1925.19 2041.17 1923.48 2041.17C1921.14 2041.17 1919.19 2041.95 1917.71 2043.43C1916.31 2044.99 1915.53 2047.01 1915.53 2049.51C1915.53 2055.35 1919.12 2058.39 1926.29 2058.63V2067.12ZM1907.82 1966.85H1963.3V1976.13H1920.52L1963.3 1991.56V1999.5L1920.52 2015.32H1963.3V2024.52H1907.82V2010.88L1951.22 1995.37L1907.82 1980.41V1966.85Z" fill="black"/>
<path d="M1937.96 1366.91C1936.58 1365.52 1934.34 1365.52 1932.95 1366.91L1910.41 1389.45C1909.03 1390.83 1909.03 1393.07 1910.41 1394.46C1911.79 1395.84 1914.04 1395.84 1915.42 1394.46L1935.46 1374.42L1955.5 1394.46C1956.88 1395.84 1959.12 1395.84 1960.51 1394.46C1961.89 1393.07 1961.89 1390.83 1960.51 1389.45L1937.96 1366.91ZM1939 1952.7L1939 1369.41L1931.92 1369.41L1931.92 1952.7L1939 1952.7Z" fill="#F7F7F7"/>
<path d="M2270.93 1660.02C2272.32 1658.63 2272.32 1656.39 2270.93 1655.01L2248.39 1632.46C2247.01 1631.08 2244.76 1631.08 2243.38 1632.46C2242 1633.85 2242 1636.09 2243.38 1637.47L2263.42 1657.51L2243.38 1677.55C2242 1678.93 2242 1681.18 2243.38 1682.56C2244.76 1683.94 2247.01 1683.94 2248.39 1682.56L2270.93 1660.02ZM1599.98 1655.01C1598.6 1656.39 1598.6 1658.63 1599.98 1660.02L1622.53 1682.56C1623.91 1683.94 1626.15 1683.94 1627.54 1682.56C1628.92 1681.18 1628.92 1678.93 1627.54 1677.55L1607.5 1657.51L1627.54 1637.47C1628.92 1636.09 1628.92 1633.85 1627.54 1632.46C1626.15 1631.08 1623.91 1631.08 1622.53 1632.46L1599.98 1655.01ZM2268.43 1653.97L1602.49 1653.97L1602.49 1661.05L2268.43 1661.05L2268.43 1653.97Z" fill="#F7F7F7"/>
<path d="M1616.66 2698.93V2629.27V2432.08H1722.92V2698.93H1616.66Z" fill="#F7F7F7" stroke="#F7F7F7" stroke-width="2.36149"/>
<path d="M1689.76 2626.83H1697.63V2664.08C1695.22 2664.08 1692.96 2663.69 1690.93 2663.06C1688.91 2662.44 1687.19 2661.74 1685.79 2660.96C1684.39 2660.18 1682.91 2658.93 1681.43 2657.37C1679.94 2655.82 1678.7 2654.33 1677.76 2653.09C1676.83 2651.84 1675.58 2650.05 1674.02 2647.79C1673.94 2647.63 1673.48 2646.93 1672.54 2645.53C1671.61 2644.13 1671.06 2643.27 1670.83 2642.96C1670.59 2642.65 1670.05 2641.94 1669.19 2640.85C1668.33 2639.76 1667.63 2639.06 1667.09 2638.75C1666.62 2638.44 1665.92 2637.97 1664.98 2637.35C1664.13 2636.72 1663.27 2636.33 1662.33 2636.1C1661.4 2635.94 1660.46 2635.79 1659.37 2635.79C1656.57 2635.79 1654.31 2636.65 1652.67 2638.2C1651.03 2639.76 1650.18 2641.94 1650.18 2644.59C1650.18 2646.15 1650.49 2647.56 1650.96 2648.65C1651.42 2649.81 1652.05 2650.75 1652.83 2651.37C1653.6 2652 1654.62 2652.54 1655.86 2652.93C1657.11 2653.4 1658.2 2653.63 1659.29 2653.79C1660.38 2653.95 1661.71 2654.02 1663.11 2654.02V2662.67H1661.71C1655.86 2662.67 1651.19 2661.04 1647.76 2657.76C1644.33 2654.49 1642.54 2649.97 1642.54 2644.36C1642.54 2639.06 1644.1 2634.85 1647.06 2631.58C1650.02 2628.38 1653.99 2626.75 1658.9 2626.75C1660.93 2626.75 1662.8 2627.06 1664.51 2627.68C1666.31 2628.31 1667.71 2629.01 1668.8 2629.71C1669.89 2630.41 1671.22 2631.58 1672.62 2633.29C1674.1 2635.01 1675.11 2636.33 1675.66 2637.11C1676.28 2637.97 1677.3 2639.53 1678.78 2641.71C1682.98 2648.26 1686.65 2652.15 1689.76 2653.4V2626.83ZM1697.63 2626.15L1668.88 2606.36L1642.15 2624.75V2613.14L1661.79 2600.51L1642.15 2587.34V2576.43L1668.88 2594.82L1697.63 2575.11V2586.95L1676.44 2600.82L1697.63 2614.93V2626.15ZM1689.76 2539.23H1697.63V2576.48C1695.22 2576.48 1692.96 2576.09 1690.93 2575.46C1688.91 2574.84 1687.19 2574.14 1685.79 2573.36C1684.39 2572.58 1682.91 2571.33 1681.43 2569.77C1679.94 2568.22 1678.7 2566.74 1677.76 2565.49C1676.83 2564.24 1675.58 2562.45 1674.02 2560.19C1673.94 2560.03 1673.48 2559.33 1672.54 2557.93C1671.61 2556.53 1671.06 2555.67 1670.83 2555.36C1670.59 2555.05 1670.05 2554.35 1669.19 2553.25C1668.33 2552.16 1667.63 2551.46 1667.09 2551.15C1666.62 2550.84 1665.92 2550.37 1664.98 2549.75C1664.13 2549.12 1663.27 2548.73 1662.33 2548.5C1661.4 2548.34 1660.46 2548.19 1659.37 2548.19C1656.57 2548.19 1654.31 2549.05 1652.67 2550.6C1651.03 2552.16 1650.18 2554.35 1650.18 2556.99C1650.18 2558.55 1650.49 2559.96 1650.96 2561.05C1651.42 2562.22 1652.05 2563.15 1652.83 2563.77C1653.6 2564.4 1654.62 2564.94 1655.86 2565.33C1657.11 2565.8 1658.2 2566.03 1659.29 2566.19C1660.38 2566.35 1661.71 2566.42 1663.11 2566.42V2575.07H1661.71C1655.86 2575.07 1651.19 2573.44 1647.76 2570.16C1644.33 2566.89 1642.54 2562.37 1642.54 2556.76C1642.54 2551.46 1644.1 2547.25 1647.06 2543.98C1650.02 2540.79 1653.99 2539.15 1658.9 2539.15C1660.93 2539.15 1662.8 2539.46 1664.51 2540.08C1666.31 2540.71 1667.71 2541.41 1668.8 2542.11C1669.89 2542.81 1671.22 2543.98 1672.62 2545.7C1674.1 2547.41 1675.11 2548.73 1675.66 2549.51C1676.28 2550.37 1677.3 2551.93 1678.78 2554.11C1682.98 2560.66 1686.65 2564.55 1689.76 2565.8V2539.23ZM1642.15 2474.57H1697.63V2483.85H1654.85L1697.63 2499.28V2507.22L1654.85 2523.04H1697.63V2532.24H1642.15V2518.6L1685.56 2503.09L1642.15 2488.13V2474.57Z" fill="black"/>
<rect x="1646.18" y="3224.36" width="422.707" height="673.025" transform="rotate(-90 1646.18 3224.36)" stroke="#F7F7F7" stroke-width="7.08447" stroke-dasharray="14.17 14.17"/>
<rect x="1634.37" y="1361.14" width="531.335" height="250.318" transform="rotate(-90 1634.37 1361.14)" stroke="#F7F7F7" stroke-width="7.08447" stroke-dasharray="14.17 14.17"/>
<rect x="2194.04" y="1039.98" width="162.943" height="110.99" transform="rotate(-90 2194.04 1039.98)" stroke="#F7F7F7" stroke-width="7.08447" stroke-dasharray="14.17 14.17"/>
<path d="M968.316 108.179H900.841V68.2007H833.366V177.032H968.316V108.179Z" fill="white"/>
<path d="M821.757 3276.77H736.869V3227.2H651.981V3362.15H821.757V3276.77Z" fill="white"/>
<path d="M1209.65 132.336V219.904H1194.48V159.701H1172.84V149.253C1187.89 149.253 1196.34 143.655 1198.21 132.336H1209.65Z" fill="#F7F7F7"/>
<path d="M1225.08 333.732V346.295H1165.62C1165.62 342.439 1166.24 338.832 1167.24 335.598C1168.23 332.364 1169.35 329.628 1170.6 327.389C1171.84 325.15 1173.83 322.786 1176.32 320.423C1178.81 318.06 1181.17 316.069 1183.16 314.577C1185.15 313.084 1188.01 311.094 1191.62 308.606C1191.87 308.482 1192.99 307.736 1195.23 306.243C1197.46 304.75 1198.83 303.88 1199.33 303.506C1199.83 303.133 1200.95 302.263 1202.69 300.894C1204.43 299.526 1205.55 298.407 1206.05 297.536C1206.54 296.79 1207.29 295.67 1208.29 294.177C1209.28 292.809 1209.9 291.441 1210.28 289.948C1210.52 288.456 1210.77 286.963 1210.77 285.222C1210.77 280.744 1209.41 277.136 1206.92 274.524C1204.43 271.912 1200.95 270.544 1196.72 270.544C1194.23 270.544 1191.99 271.042 1190.25 271.788C1188.38 272.534 1186.89 273.529 1185.9 274.773C1184.9 276.017 1184.03 277.634 1183.41 279.624C1182.66 281.614 1182.29 283.356 1182.04 285.097C1181.79 286.839 1181.67 288.953 1181.67 291.192H1167.86V288.953C1167.86 279.624 1170.47 272.161 1175.7 266.688C1180.92 261.215 1188.14 258.354 1197.09 258.354C1205.55 258.354 1212.27 260.842 1217.49 265.568C1222.59 270.295 1225.2 276.639 1225.2 284.475C1225.2 287.709 1224.7 290.695 1223.71 293.431C1222.71 296.292 1221.6 298.531 1220.48 300.272C1219.36 302.014 1217.49 304.128 1214.75 306.367C1212.02 308.731 1209.9 310.348 1208.66 311.218C1207.29 312.213 1204.8 313.831 1201.32 316.194C1190.87 322.911 1184.65 328.757 1182.66 333.732H1225.08Z" fill="#F7F7F7"/>
<path d="M1168.23 413.603C1168.48 404.647 1171.09 397.681 1176.19 392.457C1181.17 387.357 1188.01 384.745 1196.59 384.745C1204.55 384.745 1211.15 386.984 1216.12 391.213C1221.1 395.567 1223.59 401.164 1223.59 408.13C1223.59 412.359 1222.47 416.091 1220.23 419.325C1217.99 422.559 1215.13 424.673 1211.4 425.917C1216.25 427.161 1220.1 429.649 1222.96 433.256C1225.7 436.863 1227.19 441.217 1227.19 446.441C1227.19 454.775 1224.33 461.492 1218.61 466.716C1212.89 471.94 1205.42 474.552 1196.34 474.552C1187.26 474.552 1179.93 471.94 1174.45 466.716C1168.86 461.492 1166.12 454.65 1166.12 445.943V444.078H1179.8C1180.17 456.267 1185.77 462.362 1196.72 462.362C1201.44 462.362 1205.3 460.994 1208.16 458.258C1210.9 455.521 1212.39 451.665 1212.39 446.814C1212.39 441.839 1210.77 438.107 1207.54 435.744C1204.31 433.505 1200.08 432.261 1194.98 432.261C1193.36 432.261 1191.87 432.385 1190.5 432.385V421.688H1191.74C1194.23 421.688 1196.47 421.564 1198.33 421.315C1200.08 421.066 1201.94 420.444 1203.81 419.698C1205.67 418.952 1207.17 417.583 1208.16 415.842C1209.16 414.1 1209.65 411.861 1209.65 409.125C1209.65 405.393 1208.41 402.284 1206.05 399.92C1203.56 397.681 1200.33 396.438 1196.34 396.438C1187.02 396.438 1182.16 402.159 1181.79 413.603H1168.23Z" fill="#F7F7F7"/>
<path d="M1227.69 566.488V578.429H1216.62V599.078H1202.94L1202.81 578.429H1165.87V564.374L1203.19 511.261H1216.62V566.488H1227.69ZM1203.06 566.488V528.799L1177.56 566.488H1203.06Z" fill="#F7F7F7"/>
<path d="M1222.09 638.896V651.21H1187.39L1183.41 673.6C1187.26 669.495 1192.74 667.38 1199.83 667.38C1207.79 667.38 1214.38 669.992 1219.36 675.217C1224.33 680.441 1226.82 687.406 1226.82 695.865C1226.82 705.069 1223.83 712.657 1218.11 718.379C1212.27 724.225 1204.8 727.086 1195.72 727.086C1187.02 727.086 1180.05 724.722 1174.7 719.996C1169.35 715.269 1166.49 708.801 1166.24 700.716H1180.3C1180.55 705.194 1182.16 708.801 1185.15 711.413C1188.01 714.15 1191.62 715.393 1196.1 715.393C1201.2 715.393 1205.18 713.776 1208.04 710.542C1210.77 707.308 1212.27 702.582 1212.27 696.611C1212.27 690.889 1210.77 686.411 1207.91 683.177C1204.93 679.943 1200.95 678.326 1195.85 678.326C1189.63 678.326 1184.78 680.938 1181.29 686.163L1168.86 685.789L1177.19 638.896H1222.09Z" fill="#F7F7F7"/>
<path d="M1225.82 786.93H1212.14C1210.65 778.969 1206.17 774.989 1198.96 774.989C1196.84 774.989 1194.98 775.486 1193.23 776.233C1191.49 777.104 1190 778.099 1188.88 779.094C1187.64 780.213 1186.64 781.83 1185.77 783.82C1184.78 785.811 1184.15 787.552 1183.66 788.92C1183.16 790.288 1182.79 792.279 1182.29 794.766C1181.79 797.379 1181.54 799.12 1181.54 800.115C1181.42 801.11 1181.29 802.852 1181.05 805.09C1185.77 798 1192.49 794.393 1200.95 794.393C1208.91 794.393 1215.38 797.13 1220.35 802.354C1225.33 807.703 1227.81 814.668 1227.81 823.127C1227.81 832.082 1224.95 839.297 1219.48 845.019C1214.01 850.74 1206.92 853.601 1198.46 853.601C1188.38 853.601 1180.67 849.87 1175.32 842.282C1169.85 834.819 1167.24 823.997 1167.24 809.942C1167.24 795.513 1170.1 784.194 1175.82 775.984C1181.54 767.899 1189.38 763.794 1199.58 763.794C1206.92 763.794 1212.89 765.909 1217.61 769.889C1222.22 773.994 1224.95 779.716 1225.82 786.93ZM1198.09 805.712C1193.36 805.712 1189.75 807.329 1187.02 810.564C1184.28 813.798 1182.91 818.027 1182.91 823.251C1182.91 828.848 1184.28 833.326 1187.14 836.685C1190 840.168 1193.73 841.785 1198.46 841.785C1202.94 841.785 1206.67 840.168 1209.41 836.809C1212.14 833.575 1213.63 829.097 1213.63 823.624C1213.63 818.275 1212.14 813.922 1209.41 810.688C1206.54 807.454 1202.81 805.712 1198.09 805.712Z" fill="#F7F7F7"/>
<path d="M1226.69 891.678V903.619C1217.61 912.699 1210.15 924.143 1204.43 937.95C1198.58 951.757 1195.47 965.19 1194.98 978.251H1179.43C1179.68 966.559 1183.16 953.374 1189.75 938.82C1196.22 924.267 1203.93 912.948 1212.64 904.738H1167.36V891.678H1226.69Z" fill="#F7F7F7"/>
<path d="M1182.66 1057.75C1178.68 1056.38 1175.7 1054.14 1173.46 1050.91C1171.22 1047.67 1170.22 1043.94 1170.22 1039.59C1170.22 1032.87 1172.71 1027.27 1177.81 1022.92C1182.91 1018.69 1189.5 1016.45 1197.71 1016.45C1205.42 1016.45 1211.89 1018.69 1216.87 1022.92C1221.84 1027.15 1224.33 1032.62 1224.33 1039.21C1224.33 1048.17 1220.23 1054.27 1212.02 1057.75C1217.24 1059.61 1221.22 1062.23 1223.96 1065.46C1226.57 1068.82 1227.94 1073.3 1227.94 1078.77C1227.94 1086.98 1225.08 1093.7 1219.48 1098.67C1213.76 1103.65 1206.42 1106.13 1197.22 1106.13C1188.01 1106.13 1180.67 1103.77 1175.07 1098.8C1169.48 1093.94 1166.74 1087.48 1166.74 1079.52C1166.74 1074.17 1168.11 1069.57 1170.85 1065.83C1173.58 1062.1 1177.56 1059.37 1182.66 1057.75ZM1197.59 1027.9C1193.23 1027.9 1189.75 1029.14 1187.26 1031.38C1184.78 1033.62 1183.53 1036.73 1183.53 1040.46C1183.53 1044.31 1184.78 1047.42 1187.39 1049.66C1189.88 1052.03 1193.23 1053.15 1197.46 1053.15C1201.57 1053.15 1204.93 1052.03 1207.42 1049.79C1209.9 1047.55 1211.15 1044.44 1211.15 1040.46C1211.15 1036.73 1209.9 1033.62 1207.42 1031.38C1204.93 1029.14 1201.69 1027.9 1197.59 1027.9ZM1197.22 1063.35C1192.36 1063.35 1188.51 1064.84 1185.52 1067.7C1182.54 1070.56 1181.05 1074.29 1181.05 1078.77C1181.05 1083.75 1182.54 1087.73 1185.52 1090.59C1188.51 1093.57 1192.49 1094.94 1197.71 1094.94C1202.69 1094.94 1206.54 1093.57 1209.41 1090.84C1212.14 1088.1 1213.63 1084.12 1213.63 1079.14C1213.63 1074.42 1212.14 1070.56 1209.16 1067.7C1206.17 1064.84 1202.19 1063.35 1197.22 1063.35Z" fill="#F7F7F7"/>
<path d="M1168.23 1209.39H1181.92C1182.16 1213 1183.53 1215.86 1186.02 1218.1C1188.38 1220.34 1191.62 1221.46 1195.6 1221.46C1206.05 1221.46 1211.77 1211.38 1212.76 1190.98C1208.04 1198.44 1201.57 1202.05 1193.36 1202.05C1185.52 1202.05 1179.05 1199.44 1174.08 1194.09C1168.98 1188.74 1166.49 1181.9 1166.49 1173.44C1166.49 1164.61 1169.23 1157.27 1174.83 1151.55C1180.3 1145.83 1187.39 1142.84 1196.1 1142.84C1200.82 1142.84 1204.93 1143.71 1208.66 1145.46C1212.39 1147.2 1215.38 1149.56 1217.61 1152.3C1219.85 1155.03 1221.6 1158.39 1223.09 1162.25C1224.58 1166.1 1225.58 1169.96 1226.07 1173.69C1226.57 1177.55 1226.94 1181.53 1226.94 1185.76C1226.94 1191.48 1226.32 1196.95 1225.33 1202.18C1224.33 1207.4 1222.59 1212.38 1220.35 1217.1C1218.11 1221.83 1214.75 1225.68 1210.4 1228.55C1205.92 1231.41 1200.82 1232.77 1194.85 1232.77C1187.39 1232.77 1181.17 1230.66 1176.19 1226.18C1171.22 1221.83 1168.48 1216.23 1168.23 1209.39ZM1195.6 1154.78C1191.12 1154.78 1187.51 1156.53 1184.78 1159.88C1182.04 1163.24 1180.8 1167.6 1180.8 1173.07C1180.8 1178.54 1182.16 1182.77 1184.9 1185.88C1187.64 1189.11 1191.24 1190.61 1195.85 1190.61C1200.33 1190.61 1204.06 1188.99 1206.92 1185.76C1209.65 1182.52 1211.15 1178.29 1211.15 1173.07C1211.15 1167.6 1209.65 1163.12 1206.92 1159.76C1204.06 1156.53 1200.33 1154.78 1195.6 1154.78Z" fill="#F7F7F7"/>
<path d="M1209.65 1269.86V1357.42H1194.48V1297.22H1172.84V1286.77C1187.89 1286.77 1196.34 1281.18 1198.21 1269.86H1209.65ZM1261.23 1269.61C1281.38 1269.61 1291.58 1284.66 1291.58 1314.76C1291.58 1329.31 1288.97 1340.38 1284 1347.85C1278.9 1355.43 1271.43 1359.17 1261.73 1359.17C1241.46 1359.17 1231.38 1344.36 1231.38 1314.51C1231.38 1299.83 1233.87 1288.76 1238.97 1281.05C1243.94 1273.46 1251.41 1269.61 1261.23 1269.61ZM1261.36 1281.55C1258.87 1281.55 1256.63 1282.05 1254.89 1283.04C1253.02 1284.04 1251.53 1285.4 1250.41 1287.39C1249.29 1289.38 1248.42 1291.25 1247.8 1293.24C1247.05 1295.23 1246.56 1297.59 1246.31 1300.58C1246.06 1303.56 1245.81 1306.05 1245.81 1308.04C1245.68 1310.03 1245.68 1312.4 1245.68 1315.38C1245.68 1326.58 1246.93 1334.79 1249.42 1339.76C1251.9 1344.86 1256.01 1347.35 1261.61 1347.35C1263.72 1347.35 1265.59 1346.98 1267.33 1346.11C1269.07 1345.23 1270.44 1344.11 1271.56 1342.87C1272.55 1341.63 1273.55 1340.01 1274.29 1337.9C1275.04 1335.91 1275.54 1334.04 1275.91 1332.3C1276.28 1330.56 1276.53 1328.44 1276.78 1325.95C1277.03 1323.47 1277.15 1321.48 1277.15 1320.11C1277.15 1318.74 1277.28 1317 1277.28 1314.76C1277.28 1312.02 1277.15 1309.78 1277.15 1308.29C1277.15 1306.8 1277.03 1304.44 1276.78 1301.33C1276.53 1298.22 1276.03 1295.73 1275.29 1293.74C1274.54 1291.87 1273.67 1289.88 1272.55 1287.77C1271.43 1285.78 1269.94 1284.16 1268.07 1283.17C1266.08 1282.17 1263.84 1281.55 1261.36 1281.55Z" fill="#F7F7F7"/>
<path d="M1209.65 1395.37V1482.94H1194.48V1422.74H1172.84V1412.29C1187.89 1412.29 1196.34 1406.69 1198.21 1395.37H1209.65ZM1273.8 1395.37V1482.94H1258.62V1422.74H1236.98V1412.29C1252.03 1412.29 1260.49 1406.69 1262.35 1395.37H1273.8Z" fill="#F7F7F7"/>
<path d="M1209.65 1520.89V1608.46H1194.48V1548.25H1172.84V1537.8C1187.89 1537.8 1196.34 1532.21 1198.21 1520.89H1209.65ZM1289.22 1595.89V1608.46H1229.76C1229.76 1604.6 1230.38 1600.99 1231.38 1597.76C1232.37 1594.53 1233.49 1591.79 1234.74 1589.55C1235.98 1587.31 1237.97 1584.95 1240.46 1582.58C1242.95 1580.22 1245.31 1578.23 1247.3 1576.74C1249.29 1575.25 1252.15 1573.26 1255.76 1570.77C1256.01 1570.64 1257.13 1569.9 1259.37 1568.4C1261.61 1566.91 1262.97 1566.04 1263.47 1565.67C1263.97 1565.29 1265.09 1564.42 1266.83 1563.06C1268.57 1561.69 1269.69 1560.57 1270.19 1559.7C1270.69 1558.95 1271.43 1557.83 1272.43 1556.34C1273.42 1554.97 1274.04 1553.6 1274.42 1552.11C1274.67 1550.62 1274.92 1549.12 1274.92 1547.38C1274.92 1542.9 1273.55 1539.3 1271.06 1536.69C1268.57 1534.07 1265.09 1532.71 1260.86 1532.71C1258.37 1532.71 1256.13 1533.2 1254.39 1533.95C1252.53 1534.7 1251.03 1535.69 1250.04 1536.93C1249.04 1538.18 1248.17 1539.8 1247.55 1541.79C1246.8 1543.78 1246.43 1545.52 1246.18 1547.26C1245.93 1549 1245.81 1551.11 1245.81 1553.35H1232V1551.11C1232 1541.79 1234.61 1534.32 1239.84 1528.85C1245.06 1523.38 1252.28 1520.52 1261.23 1520.52C1269.69 1520.52 1276.41 1523 1281.63 1527.73C1286.73 1532.46 1289.34 1538.8 1289.34 1546.64C1289.34 1549.87 1288.85 1552.86 1287.85 1555.59C1286.86 1558.45 1285.74 1560.69 1284.62 1562.43C1283.5 1564.17 1281.63 1566.29 1278.9 1568.53C1276.16 1570.89 1274.04 1572.51 1272.8 1573.38C1271.43 1574.37 1268.94 1575.99 1265.46 1578.35C1255.01 1585.07 1248.79 1590.92 1246.8 1595.89H1289.22Z" fill="#F7F7F7"/>
<path d="M1209.65 1646.4V1733.97H1194.48V1673.77H1172.84V1663.32C1187.89 1663.32 1196.34 1657.72 1198.21 1646.4H1209.65ZM1232.37 1674.89C1232.62 1665.93 1235.24 1658.97 1240.34 1653.74C1245.31 1648.64 1252.15 1646.03 1260.74 1646.03C1268.7 1646.03 1275.29 1648.27 1280.26 1652.5C1285.24 1656.85 1287.73 1662.45 1287.73 1669.42C1287.73 1673.65 1286.61 1677.38 1284.37 1680.61C1282.13 1683.84 1279.27 1685.96 1275.54 1687.2C1280.39 1688.45 1284.24 1690.93 1287.11 1694.54C1289.84 1698.15 1291.33 1702.5 1291.33 1707.73C1291.33 1716.06 1288.47 1722.78 1282.75 1728C1277.03 1733.23 1269.57 1735.84 1260.49 1735.84C1251.41 1735.84 1244.07 1733.23 1238.59 1728C1233 1722.78 1230.26 1715.94 1230.26 1707.23V1705.36H1243.94C1244.32 1717.55 1249.91 1723.65 1260.86 1723.65C1265.59 1723.65 1269.44 1722.28 1272.3 1719.54C1275.04 1716.81 1276.53 1712.95 1276.53 1708.1C1276.53 1703.12 1274.92 1699.39 1271.68 1697.03C1268.45 1694.79 1264.22 1693.55 1259.12 1693.55C1257.5 1693.55 1256.01 1693.67 1254.64 1693.67V1682.97H1255.88C1258.37 1682.97 1260.61 1682.85 1262.48 1682.6C1264.22 1682.35 1266.08 1681.73 1267.95 1680.98C1269.82 1680.24 1271.31 1678.87 1272.3 1677.13C1273.3 1675.39 1273.8 1673.15 1273.8 1670.41C1273.8 1666.68 1272.55 1663.57 1270.19 1661.21C1267.7 1658.97 1264.47 1657.72 1260.49 1657.72C1251.16 1657.72 1246.31 1663.45 1245.93 1674.89H1232.37Z" fill="#F7F7F7"/>
<path d="M1209.65 1771.92V1859.49H1194.48V1799.29H1172.84V1788.84C1187.89 1788.84 1196.34 1783.24 1198.21 1771.92H1209.65ZM1291.83 1826.9V1838.84H1280.76V1859.49H1267.08L1266.95 1838.84H1230.01V1824.78L1267.33 1771.67H1280.76V1826.9H1291.83ZM1267.2 1826.9V1789.21L1241.7 1826.9H1267.2Z" fill="#F7F7F7"/>
<path d="M1209.65 1897.44V1985H1194.48V1924.8H1172.84V1914.35C1187.89 1914.35 1196.34 1908.76 1198.21 1897.44H1209.65ZM1286.23 1898.43V1910.75H1251.53L1247.55 1933.14C1251.41 1929.03 1256.88 1926.92 1263.97 1926.92C1271.93 1926.92 1278.52 1929.53 1283.5 1934.75C1288.47 1939.98 1290.96 1946.94 1290.96 1955.4C1290.96 1964.61 1287.98 1972.19 1282.25 1977.91C1276.41 1983.76 1268.94 1986.62 1259.86 1986.62C1251.16 1986.62 1244.19 1984.26 1238.84 1979.53C1233.49 1974.81 1230.63 1968.34 1230.38 1960.25H1244.44C1244.69 1964.73 1246.31 1968.34 1249.29 1970.95C1252.15 1973.69 1255.76 1974.93 1260.24 1974.93C1265.34 1974.93 1269.32 1973.31 1272.18 1970.08C1274.92 1966.84 1276.41 1962.12 1276.41 1956.15C1276.41 1950.43 1274.92 1945.95 1272.05 1942.71C1269.07 1939.48 1265.09 1937.86 1259.99 1937.86C1253.77 1937.86 1248.92 1940.47 1245.44 1945.7L1233 1945.33L1241.33 1898.43H1286.23Z" fill="#F7F7F7"/>
<path d="M1209.65 2022.95V2110.52H1194.48V2050.32H1172.84V2039.87C1187.89 2039.87 1196.34 2034.27 1198.21 2022.95H1209.65ZM1289.97 2045.59H1276.28C1274.79 2037.63 1270.31 2033.65 1263.1 2033.65C1260.98 2033.65 1259.12 2034.15 1257.38 2034.89C1255.64 2035.76 1254.14 2036.76 1253.02 2037.76C1251.78 2038.87 1250.78 2040.49 1249.91 2042.48C1248.92 2044.47 1248.3 2046.21 1247.8 2047.58C1247.3 2048.95 1246.93 2050.94 1246.43 2053.43C1245.93 2056.04 1245.68 2057.78 1245.68 2058.78C1245.56 2059.77 1245.44 2061.51 1245.19 2063.75C1249.91 2056.66 1256.63 2053.05 1265.09 2053.05C1273.05 2053.05 1279.52 2055.79 1284.49 2061.02C1289.47 2066.36 1291.96 2073.33 1291.96 2081.79C1291.96 2090.74 1289.1 2097.96 1283.62 2103.68C1278.15 2109.4 1271.06 2112.26 1262.6 2112.26C1252.53 2112.26 1244.81 2108.53 1239.47 2100.94C1233.99 2093.48 1231.38 2082.66 1231.38 2068.6C1231.38 2054.17 1234.24 2042.85 1239.96 2034.65C1245.68 2026.56 1253.52 2022.46 1263.72 2022.46C1271.06 2022.46 1277.03 2024.57 1281.76 2028.55C1286.36 2032.66 1289.1 2038.38 1289.97 2045.59ZM1262.23 2064.37C1257.5 2064.37 1253.89 2065.99 1251.16 2069.22C1248.42 2072.46 1247.05 2076.69 1247.05 2081.91C1247.05 2087.51 1248.42 2091.99 1251.28 2095.35C1254.14 2098.83 1257.87 2100.45 1262.6 2100.45C1267.08 2100.45 1270.81 2098.83 1273.55 2095.47C1276.28 2092.24 1277.78 2087.76 1277.78 2082.29C1277.78 2076.94 1276.28 2072.58 1273.55 2069.35C1270.69 2066.12 1266.95 2064.37 1262.23 2064.37Z" fill="#F7F7F7"/>
<path d="M1209.65 2148.47V2236.04H1194.48V2175.83H1172.84V2165.39C1187.89 2165.39 1196.34 2159.79 1198.21 2148.47H1209.65ZM1290.84 2149.46V2161.41C1281.76 2170.49 1274.29 2181.93 1268.57 2195.74C1262.73 2209.54 1259.62 2222.98 1259.12 2236.04H1243.57C1243.82 2224.34 1247.3 2211.16 1253.89 2196.61C1260.36 2182.05 1268.07 2170.73 1276.78 2162.52H1231.5V2149.46H1290.84Z" fill="#F7F7F7"/>
<path d="M1209.65 2273.99V2361.55H1194.48V2301.35H1172.84V2290.9C1187.89 2290.9 1196.34 2285.3 1198.21 2273.99H1209.65ZM1246.8 2314.66C1242.82 2313.29 1239.84 2311.05 1237.6 2307.82C1235.36 2304.58 1234.37 2300.85 1234.37 2296.5C1234.37 2289.78 1236.85 2284.18 1241.95 2279.83C1247.05 2275.6 1253.65 2273.36 1261.85 2273.36C1269.57 2273.36 1276.03 2275.6 1281.01 2279.83C1285.99 2284.06 1288.47 2289.53 1288.47 2296.13C1288.47 2305.08 1284.37 2311.18 1276.16 2314.66C1281.38 2316.53 1285.36 2319.14 1288.1 2322.37C1290.71 2325.73 1292.08 2330.21 1292.08 2335.68C1292.08 2343.89 1289.22 2350.61 1283.62 2355.58C1277.9 2360.56 1270.56 2363.05 1261.36 2363.05C1252.15 2363.05 1244.81 2360.68 1239.22 2355.71C1233.62 2350.86 1230.88 2344.39 1230.88 2336.43C1230.88 2331.08 1232.25 2326.48 1234.99 2322.74C1237.72 2319.01 1241.7 2316.28 1246.8 2314.66ZM1261.73 2284.81C1257.38 2284.81 1253.89 2286.05 1251.41 2288.29C1248.92 2290.53 1247.67 2293.64 1247.67 2297.37C1247.67 2301.23 1248.92 2304.34 1251.53 2306.57C1254.02 2308.94 1257.38 2310.06 1261.61 2310.06C1265.71 2310.06 1269.07 2308.94 1271.56 2306.7C1274.04 2304.46 1275.29 2301.35 1275.29 2297.37C1275.29 2293.64 1274.04 2290.53 1271.56 2288.29C1269.07 2286.05 1265.83 2284.81 1261.73 2284.81ZM1261.36 2320.26C1256.51 2320.26 1252.65 2321.75 1249.66 2324.61C1246.68 2327.47 1245.19 2331.2 1245.19 2335.68C1245.19 2340.66 1246.68 2344.64 1249.66 2347.5C1252.65 2350.48 1256.63 2351.85 1261.85 2351.85C1266.83 2351.85 1270.69 2350.48 1273.55 2347.75C1276.28 2345.01 1277.78 2341.03 1277.78 2336.05C1277.78 2331.33 1276.28 2327.47 1273.3 2324.61C1270.31 2321.75 1266.33 2320.26 1261.36 2320.26Z" fill="#F7F7F7"/>
<path d="M1209.65 2399.5V2487.07H1194.48V2426.87H1172.84V2416.42C1187.89 2416.42 1196.34 2410.82 1198.21 2399.5H1209.65ZM1232.37 2465.43H1246.06C1246.31 2469.03 1247.67 2471.89 1250.16 2474.13C1252.53 2476.37 1255.76 2477.49 1259.74 2477.49C1270.19 2477.49 1275.91 2467.42 1276.91 2447.02C1272.18 2454.48 1265.71 2458.09 1257.5 2458.09C1249.66 2458.09 1243.2 2455.48 1238.22 2450.13C1233.12 2444.78 1230.63 2437.94 1230.63 2429.48C1230.63 2420.65 1233.37 2413.31 1238.97 2407.59C1244.44 2401.86 1251.53 2398.88 1260.24 2398.88C1264.96 2398.88 1269.07 2399.75 1272.8 2401.49C1276.53 2403.23 1279.52 2405.6 1281.76 2408.33C1284 2411.07 1285.74 2414.43 1287.23 2418.28C1288.72 2422.14 1289.72 2426 1290.21 2429.73C1290.71 2433.58 1291.09 2437.56 1291.09 2441.79C1291.09 2447.51 1290.46 2452.99 1289.47 2458.21C1288.47 2463.44 1286.73 2468.41 1284.49 2473.14C1282.25 2477.87 1278.9 2481.72 1274.54 2484.58C1270.06 2487.44 1264.96 2488.81 1258.99 2488.81C1251.53 2488.81 1245.31 2486.7 1240.34 2482.22C1235.36 2477.87 1232.62 2472.27 1232.37 2465.43ZM1259.74 2410.82C1255.26 2410.82 1251.65 2412.56 1248.92 2415.92C1246.18 2419.28 1244.94 2423.63 1244.94 2429.11C1244.94 2434.58 1246.31 2438.81 1249.04 2441.92C1251.78 2445.15 1255.39 2446.64 1259.99 2446.64C1264.47 2446.64 1268.2 2445.03 1271.06 2441.79C1273.8 2438.56 1275.29 2434.33 1275.29 2429.11C1275.29 2423.63 1273.8 2419.15 1271.06 2415.8C1268.2 2412.56 1264.47 2410.82 1259.74 2410.82Z" fill="#F7F7F7"/>
<path d="M1225.08 2600.02V2612.59H1165.62C1165.62 2608.73 1166.24 2605.12 1167.24 2601.89C1168.23 2598.65 1169.35 2595.92 1170.6 2593.68C1171.84 2591.44 1173.83 2589.08 1176.32 2586.71C1178.81 2584.35 1181.17 2582.36 1183.16 2580.87C1185.15 2579.37 1188.01 2577.38 1191.62 2574.9C1191.87 2574.77 1192.99 2574.03 1195.23 2572.53C1197.46 2571.04 1198.83 2570.17 1199.33 2569.8C1199.83 2569.42 1200.95 2568.55 1202.69 2567.19C1204.43 2565.82 1205.55 2564.7 1206.05 2563.83C1206.54 2563.08 1207.29 2561.96 1208.29 2560.47C1209.28 2559.1 1209.9 2557.73 1210.28 2556.24C1210.52 2554.75 1210.77 2553.25 1210.77 2551.51C1210.77 2547.03 1209.41 2543.43 1206.92 2540.82C1204.43 2538.2 1200.95 2536.83 1196.72 2536.83C1194.23 2536.83 1191.99 2537.33 1190.25 2538.08C1188.38 2538.82 1186.89 2539.82 1185.9 2541.06C1184.9 2542.31 1184.03 2543.92 1183.41 2545.91C1182.66 2547.91 1182.29 2549.65 1182.04 2551.39C1181.79 2553.13 1181.67 2555.24 1181.67 2557.48H1167.86V2555.24C1167.86 2545.91 1170.47 2538.45 1175.7 2532.98C1180.92 2527.51 1188.14 2524.64 1197.09 2524.64C1205.55 2524.64 1212.27 2527.13 1217.49 2531.86C1222.59 2536.59 1225.2 2542.93 1225.2 2550.77C1225.2 2554 1224.7 2556.99 1223.71 2559.72C1222.71 2562.58 1221.6 2564.82 1220.48 2566.56C1219.36 2568.3 1217.49 2570.42 1214.75 2572.66C1212.02 2575.02 1209.9 2576.64 1208.66 2577.51C1207.29 2578.5 1204.8 2580.12 1201.32 2582.48C1190.87 2589.2 1184.65 2595.05 1182.66 2600.02H1225.08ZM1261.23 2524.77C1281.38 2524.77 1291.58 2539.82 1291.58 2569.92C1291.58 2584.47 1288.97 2595.55 1284 2603.01C1278.9 2610.6 1271.43 2614.33 1261.73 2614.33C1241.46 2614.33 1231.38 2599.53 1231.38 2569.67C1231.38 2555 1233.87 2543.92 1238.97 2536.21C1243.94 2528.63 1251.41 2524.77 1261.23 2524.77ZM1261.36 2536.71C1258.87 2536.71 1256.63 2537.21 1254.89 2538.2C1253.02 2539.2 1251.53 2540.57 1250.41 2542.56C1249.29 2544.55 1248.42 2546.41 1247.8 2548.4C1247.05 2550.39 1246.56 2552.76 1246.31 2555.74C1246.06 2558.73 1245.81 2561.21 1245.81 2563.2C1245.68 2565.19 1245.68 2567.56 1245.68 2570.54C1245.68 2581.74 1246.93 2589.95 1249.42 2594.92C1251.9 2600.02 1256.01 2602.51 1261.61 2602.51C1263.72 2602.51 1265.59 2602.14 1267.33 2601.27C1269.07 2600.4 1270.44 2599.28 1271.56 2598.03C1272.55 2596.79 1273.55 2595.17 1274.29 2593.06C1275.04 2591.07 1275.54 2589.2 1275.91 2587.46C1276.28 2585.72 1276.53 2583.6 1276.78 2581.12C1277.03 2578.63 1277.15 2576.64 1277.15 2575.27C1277.15 2573.9 1277.28 2572.16 1277.28 2569.92C1277.28 2567.19 1277.15 2564.95 1277.15 2563.45C1277.15 2561.96 1277.03 2559.6 1276.78 2556.49C1276.53 2553.38 1276.03 2550.89 1275.29 2548.9C1274.54 2547.03 1273.67 2545.04 1272.55 2542.93C1271.43 2540.94 1269.94 2539.32 1268.07 2538.33C1266.08 2537.33 1263.84 2536.71 1261.36 2536.71Z" fill="#F7F7F7"/>
<path d="M1225.08 2725.54V2738.1H1165.62C1165.62 2734.25 1166.24 2730.64 1167.24 2727.4C1168.23 2724.17 1169.35 2721.43 1170.6 2719.2C1171.84 2716.96 1173.83 2714.59 1176.32 2712.23C1178.81 2709.87 1181.17 2707.88 1183.16 2706.38C1185.15 2704.89 1188.01 2702.9 1191.62 2700.41C1191.87 2700.29 1192.99 2699.54 1195.23 2698.05C1197.46 2696.56 1198.83 2695.69 1199.33 2695.31C1199.83 2694.94 1200.95 2694.07 1202.69 2692.7C1204.43 2691.33 1205.55 2690.21 1206.05 2689.34C1206.54 2688.6 1207.29 2687.48 1208.29 2685.98C1209.28 2684.62 1209.9 2683.25 1210.28 2681.75C1210.52 2680.26 1210.77 2678.77 1210.77 2677.03C1210.77 2672.55 1209.41 2668.94 1206.92 2666.33C1204.43 2663.72 1200.95 2662.35 1196.72 2662.35C1194.23 2662.35 1191.99 2662.85 1190.25 2663.59C1188.38 2664.34 1186.89 2665.34 1185.9 2666.58C1184.9 2667.82 1184.03 2669.44 1183.41 2671.43C1182.66 2673.42 1182.29 2675.16 1182.04 2676.9C1181.79 2678.65 1181.67 2680.76 1181.67 2683H1167.86V2680.76C1167.86 2671.43 1170.47 2663.97 1175.7 2658.49C1180.92 2653.02 1188.14 2650.16 1197.09 2650.16C1205.55 2650.16 1212.27 2652.65 1217.49 2657.38C1222.59 2662.1 1225.2 2668.45 1225.2 2676.28C1225.2 2679.52 1224.7 2682.5 1223.71 2685.24C1222.71 2688.1 1221.6 2690.34 1220.48 2692.08C1219.36 2693.82 1217.49 2695.93 1214.75 2698.17C1212.02 2700.54 1209.9 2702.15 1208.66 2703.03C1207.29 2704.02 1204.8 2705.64 1201.32 2708C1190.87 2714.72 1184.65 2720.56 1182.66 2725.54H1225.08ZM1273.8 2650.53V2738.1H1258.62V2677.9H1236.98V2667.45C1252.03 2667.45 1260.49 2661.85 1262.35 2650.53H1273.8Z" fill="#F7F7F7"/>
<path d="M1225.08 2851.06V2863.62H1165.62C1165.62 2859.76 1166.24 2856.16 1167.24 2852.92C1168.23 2849.69 1169.35 2846.95 1170.6 2844.71C1171.84 2842.47 1173.83 2840.11 1176.32 2837.75C1178.81 2835.38 1181.17 2833.39 1183.16 2831.9C1185.15 2830.41 1188.01 2828.42 1191.62 2825.93C1191.87 2825.8 1192.99 2825.06 1195.23 2823.57C1197.46 2822.07 1198.83 2821.2 1199.33 2820.83C1199.83 2820.46 1200.95 2819.59 1202.69 2818.22C1204.43 2816.85 1205.55 2815.73 1206.05 2814.86C1206.54 2814.11 1207.29 2812.99 1208.29 2811.5C1209.28 2810.13 1209.9 2808.76 1210.28 2807.27C1210.52 2805.78 1210.77 2804.29 1210.77 2802.54C1210.77 2798.07 1209.41 2794.46 1206.92 2791.85C1204.43 2789.24 1200.95 2787.87 1196.72 2787.87C1194.23 2787.87 1191.99 2788.36 1190.25 2789.11C1188.38 2789.86 1186.89 2790.85 1185.9 2792.1C1184.9 2793.34 1184.03 2794.96 1183.41 2796.95C1182.66 2798.94 1182.29 2800.68 1182.04 2802.42C1181.79 2804.16 1181.67 2806.28 1181.67 2808.52H1167.86V2806.28C1167.86 2796.95 1170.47 2789.48 1175.7 2784.01C1180.92 2778.54 1188.14 2775.68 1197.09 2775.68C1205.55 2775.68 1212.27 2778.16 1217.49 2782.89C1222.59 2787.62 1225.2 2793.96 1225.2 2801.8C1225.2 2805.03 1224.7 2808.02 1223.71 2810.75C1222.71 2813.61 1221.6 2815.85 1220.48 2817.6C1219.36 2819.34 1217.49 2821.45 1214.75 2823.69C1212.02 2826.05 1209.9 2827.67 1208.66 2828.54C1207.29 2829.54 1204.8 2831.15 1201.32 2833.52C1190.87 2840.23 1184.65 2846.08 1182.66 2851.06H1225.08ZM1289.22 2851.06V2863.62H1229.76C1229.76 2859.76 1230.38 2856.16 1231.38 2852.92C1232.37 2849.69 1233.49 2846.95 1234.74 2844.71C1235.98 2842.47 1237.97 2840.11 1240.46 2837.75C1242.95 2835.38 1245.31 2833.39 1247.3 2831.9C1249.29 2830.41 1252.15 2828.42 1255.76 2825.93C1256.01 2825.8 1257.13 2825.06 1259.37 2823.57C1261.61 2822.07 1262.97 2821.2 1263.47 2820.83C1263.97 2820.46 1265.09 2819.59 1266.83 2818.22C1268.57 2816.85 1269.69 2815.73 1270.19 2814.86C1270.69 2814.11 1271.43 2812.99 1272.43 2811.5C1273.42 2810.13 1274.04 2808.76 1274.42 2807.27C1274.67 2805.78 1274.92 2804.29 1274.92 2802.54C1274.92 2798.07 1273.55 2794.46 1271.06 2791.85C1268.57 2789.24 1265.09 2787.87 1260.86 2787.87C1258.37 2787.87 1256.13 2788.36 1254.39 2789.11C1252.53 2789.86 1251.03 2790.85 1250.04 2792.1C1249.04 2793.34 1248.17 2794.96 1247.55 2796.95C1246.8 2798.94 1246.43 2800.68 1246.18 2802.42C1245.93 2804.16 1245.81 2806.28 1245.81 2808.52H1232V2806.28C1232 2796.95 1234.61 2789.48 1239.84 2784.01C1245.06 2778.54 1252.28 2775.68 1261.23 2775.68C1269.69 2775.68 1276.41 2778.16 1281.63 2782.89C1286.73 2787.62 1289.34 2793.96 1289.34 2801.8C1289.34 2805.03 1288.85 2808.02 1287.85 2810.75C1286.86 2813.61 1285.74 2815.85 1284.62 2817.6C1283.5 2819.34 1281.63 2821.45 1278.9 2823.69C1276.16 2826.05 1274.04 2827.67 1272.8 2828.54C1271.43 2829.54 1268.94 2831.15 1265.46 2833.52C1255.01 2840.23 1248.79 2846.08 1246.8 2851.06H1289.22Z" fill="#F7F7F7"/>
<path d="M1225.08 2976.57V2989.13H1165.62C1165.62 2985.28 1166.24 2981.67 1167.24 2978.44C1168.23 2975.2 1169.35 2972.47 1170.6 2970.23C1171.84 2967.99 1173.83 2965.63 1176.32 2963.26C1178.81 2960.9 1181.17 2958.91 1183.16 2957.42C1185.15 2955.92 1188.01 2953.93 1191.62 2951.45C1191.87 2951.32 1192.99 2950.57 1195.23 2949.08C1197.46 2947.59 1198.83 2946.72 1199.33 2946.35C1199.83 2945.97 1200.95 2945.1 1202.69 2943.73C1204.43 2942.36 1205.55 2941.25 1206.05 2940.37C1206.54 2939.63 1207.29 2938.51 1208.29 2937.02C1209.28 2935.65 1209.9 2934.28 1210.28 2932.79C1210.52 2931.29 1210.77 2929.8 1210.77 2928.06C1210.77 2923.58 1209.41 2919.98 1206.92 2917.36C1204.43 2914.75 1200.95 2913.38 1196.72 2913.38C1194.23 2913.38 1191.99 2913.88 1190.25 2914.63C1188.38 2915.37 1186.89 2916.37 1185.9 2917.61C1184.9 2918.86 1184.03 2920.47 1183.41 2922.46C1182.66 2924.45 1182.29 2926.19 1182.04 2927.94C1181.79 2929.68 1181.67 2931.79 1181.67 2934.03H1167.86V2931.79C1167.86 2922.46 1170.47 2915 1175.7 2909.53C1180.92 2904.05 1188.14 2901.19 1197.09 2901.19C1205.55 2901.19 1212.27 2903.68 1217.49 2908.41C1222.59 2913.13 1225.2 2919.48 1225.2 2927.31C1225.2 2930.55 1224.7 2933.53 1223.71 2936.27C1222.71 2939.13 1221.6 2941.37 1220.48 2943.11C1219.36 2944.85 1217.49 2946.97 1214.75 2949.21C1212.02 2951.57 1209.9 2953.19 1208.66 2954.06C1207.29 2955.05 1204.8 2956.67 1201.32 2959.03C1190.87 2965.75 1184.65 2971.6 1182.66 2976.57H1225.08ZM1232.37 2930.05C1232.62 2921.09 1235.24 2914.13 1240.34 2908.9C1245.31 2903.81 1252.15 2901.19 1260.74 2901.19C1268.7 2901.19 1275.29 2903.43 1280.26 2907.66C1285.24 2912.01 1287.73 2917.61 1287.73 2924.58C1287.73 2928.81 1286.61 2932.54 1284.37 2935.77C1282.13 2939.01 1279.27 2941.12 1275.54 2942.36C1280.39 2943.61 1284.24 2946.1 1287.11 2949.7C1289.84 2953.31 1291.33 2957.66 1291.33 2962.89C1291.33 2971.22 1288.47 2977.94 1282.75 2983.16C1277.03 2988.39 1269.57 2991 1260.49 2991C1251.41 2991 1244.07 2988.39 1238.59 2983.16C1233 2977.94 1230.26 2971.1 1230.26 2962.39V2960.53H1243.94C1244.32 2972.72 1249.91 2978.81 1260.86 2978.81C1265.59 2978.81 1269.44 2977.44 1272.3 2974.71C1275.04 2971.97 1276.53 2968.11 1276.53 2963.26C1276.53 2958.29 1274.92 2954.55 1271.68 2952.19C1268.45 2949.95 1264.22 2948.71 1259.12 2948.71C1257.5 2948.71 1256.01 2948.83 1254.64 2948.83V2938.14H1255.88C1258.37 2938.14 1260.61 2938.01 1262.48 2937.76C1264.22 2937.51 1266.08 2936.89 1267.95 2936.15C1269.82 2935.4 1271.31 2934.03 1272.3 2932.29C1273.3 2930.55 1273.8 2928.31 1273.8 2925.57C1273.8 2921.84 1272.55 2918.73 1270.19 2916.37C1267.7 2914.13 1264.47 2912.89 1260.49 2912.89C1251.16 2912.89 1246.31 2918.61 1245.93 2930.05H1232.37Z" fill="#F7F7F7"/>
<path d="M1225.08 3102.09V3114.65H1165.62C1165.62 3110.79 1166.24 3107.19 1167.24 3103.95C1168.23 3100.72 1169.35 3097.98 1170.6 3095.74C1171.84 3093.5 1173.83 3091.14 1176.32 3088.78C1178.81 3086.41 1181.17 3084.42 1183.16 3082.93C1185.15 3081.44 1188.01 3079.45 1191.62 3076.96C1191.87 3076.84 1192.99 3076.09 1195.23 3074.6C1197.46 3073.11 1198.83 3072.23 1199.33 3071.86C1199.83 3071.49 1200.95 3070.62 1202.69 3069.25C1204.43 3067.88 1205.55 3066.76 1206.05 3065.89C1206.54 3065.14 1207.29 3064.03 1208.29 3062.53C1209.28 3061.16 1209.9 3059.8 1210.28 3058.3C1210.52 3056.81 1210.77 3055.32 1210.77 3053.58C1210.77 3049.1 1209.41 3045.49 1206.92 3042.88C1204.43 3040.27 1200.95 3038.9 1196.72 3038.9C1194.23 3038.9 1191.99 3039.4 1190.25 3040.14C1188.38 3040.89 1186.89 3041.88 1185.9 3043.13C1184.9 3044.37 1184.03 3045.99 1183.41 3047.98C1182.66 3049.97 1182.29 3051.71 1182.04 3053.45C1181.79 3055.19 1181.67 3057.31 1181.67 3059.55H1167.86V3057.31C1167.86 3047.98 1170.47 3040.52 1175.7 3035.04C1180.92 3029.57 1188.14 3026.71 1197.09 3026.71C1205.55 3026.71 1212.27 3029.2 1217.49 3033.92C1222.59 3038.65 1225.2 3044.99 1225.2 3052.83C1225.2 3056.06 1224.7 3059.05 1223.71 3061.79C1222.71 3064.65 1221.6 3066.89 1220.48 3068.63C1219.36 3070.37 1217.49 3072.48 1214.75 3074.72C1212.02 3077.09 1209.9 3078.7 1208.66 3079.57C1207.29 3080.57 1204.8 3082.19 1201.32 3084.55C1190.87 3091.27 1184.65 3097.11 1182.66 3102.09H1225.08ZM1291.83 3082.06V3094H1280.76V3114.65H1267.08L1266.95 3094H1230.01V3079.95L1267.33 3026.83H1280.76V3082.06H1291.83ZM1267.2 3082.06V3044.37L1241.7 3082.06H1267.2Z" fill="#F7F7F7"/>
<path d="M2334.99 2059.08V1974.19H2384.57V1889.3H2249.62V2059.08H2334.99Z" fill="white"/>
<rect x="688.258" y="2001.04" width="100.124" height="33.3748" fill="#F9F9F9"/>
<rect x="1393.48" y="124.792" width="100.124" height="33.3748" fill="#F9F9F9"/>
<rect x="325.488" y="2269.49" width="100.124" height="33.3748" transform="rotate(-90 325.488 2269.49)" fill="#F9F9F9"/>
<rect x="1444.27" y="2028.61" width="100.124" height="33.3748" fill="#F9F9F9"/>
<rect x="1354.3" y="278.607" width="100.124" height="33.3748" fill="#F9F9F9"/>
<rect x="191.989" y="259.743" width="100.124" height="33.3748" fill="#F9F9F9"/>
<rect x="598.291" y="1009.95" width="100.124" height="33.3748" fill="#F9F9F9"/>
<rect x="739.046" y="2635.16" width="100.124" height="33.3748" fill="#F9F9F9"/>
<rect x="86.0605" y="3121.27" width="100.124" height="33.3748" fill="#F9F9F9"/>
</g>
<defs>
<clipPath id="clip0_514_1941">
<rect width="2480" height="3502.2" fill="white" transform="translate(0.446777)"/>
</clipPath>
</defs>
</svg>
