<svg width="8" height="44" viewBox="0 0 8 44" fill="none" xmlns="http://www.w3.org/2000/svg">
<mask id="path-1-outside-1_62_136" maskUnits="userSpaceOnUse" x="-0.5" y="-1" width="9" height="46" fill="black">
<rect fill="white" x="-0.5" y="-1" width="9" height="46"/>
<path d="M7.924 0.343997V2.696H2.98V41.432H7.924V43.832H0.148V0.343997H7.924Z"/>
</mask>
<path d="M7.924 0.343997V2.696H2.98V41.432H7.924V43.832H0.148V0.343997H7.924Z" fill="white"/>
<path d="M7.924 0.343997H8.424V-0.156003H7.924V0.343997ZM7.924 2.696V3.196H8.424V2.696H7.924ZM2.98 2.696V2.196H2.48V2.696H2.98ZM2.98 41.432H2.48V41.932H2.98V41.432ZM7.924 41.432H8.424V40.932H7.924V41.432ZM7.924 43.832V44.332H8.424V43.832H7.924ZM0.148 43.832H-0.352V44.332H0.148V43.832ZM0.148 0.343997V-0.156003H-0.352V0.343997H0.148ZM7.424 0.343997V2.696H8.424V0.343997H7.424ZM7.924 2.196H2.98V3.196H7.924V2.196ZM2.48 2.696V41.432H3.48V2.696H2.48ZM2.98 41.932H7.924V40.932H2.98V41.932ZM7.424 41.432V43.832H8.424V41.432H7.424ZM7.924 43.332H0.148V44.332H7.924V43.332ZM0.648 43.832V0.343997H-0.352V43.832H0.648ZM0.148 0.843997H7.924V-0.156003H0.148V0.843997Z" fill="#151515" mask="url(#path-1-outside-1_62_136)"/>
</svg>
